<svg version="1.1" xmlns="http://www.w3.org/2000/svg" xmlns:xlink="http://www.w3.org/1999/xlink" width="439.6162109375" height="355"><defs/><g><text fill="#eeeeee" stroke="none" font-family="Arial" font-size="24px" font-style="normal" font-weight="normal" text-decoration="none" x="0" y="0"> </text><text fill="#eeeeee" stroke="none" font-family="Arial" font-size="24px" font-style="normal" font-weight="normal" text-decoration="none" x="0" y="30"> </text><text fill="#eeeeee" stroke="none" font-family="Arial" font-size="24px" font-style="normal" font-weight="normal" text-decoration="none" x="0" y="60"> </text><text fill="#eeeeee" stroke="none" font-family="Arial" font-size="24px" font-style="normal" font-weight="normal" text-decoration="none" x="0" y="90"> </text><text fill="#eeeeee" stroke="none" font-family="Arial" font-size="24px" font-style="normal" font-weight="normal" text-decoration="none" x="0" y="120"> </text><text fill="#eeeeee" stroke="none" font-family="Arial" font-size="24px" font-style="normal" font-weight="normal" text-decoration="none" x="0" y="150"> </text><text fill="#eeeeee" stroke="none" font-family="Arial" font-size="24px" font-style="normal" font-weight="normal" text-decoration="none" x="0" y="180"> </text><text fill="#eeeeee" stroke="none" font-family="Arial" font-size="24px" font-style="normal" font-weight="normal" text-decoration="none" x="0" y="210"> </text><text fill="#eeeeee" stroke="none" font-family="Arial" font-size="24px" font-style="normal" font-weight="normal" text-decoration="none" x="0" y="240"> </text><text fill="#eeeeee" stroke="none" font-family="Arial" font-size="24px" font-style="normal" font-weight="normal" text-decoration="none" x="0" y="270"> </text><text fill="#eeeeee" stroke="none" font-family="Arial" font-size="24px" font-style="normal" font-weight="normal" text-decoration="none" x="0" y="300"> </text><text fill="#eeeeee" stroke="none" font-family="Arial" font-size="24px" font-style="normal" font-weight="normal" text-decoration="none" x="0" y="330"> </text><text fill="#eeeeee" stroke="none" font-family="Arial" font-size="24px" font-style="normal" font-weight="normal" text-decoration="none" x="200" y="0"> </text><text fill="#eeeeee" stroke="none" font-family="Arial" font-size="24px" font-style="normal" font-weight="normal" text-decoration="none" x="200" y="30"> </text><text fill="#eeeeee" stroke="none" font-family="Arial" font-size="24px" font-style="normal" font-weight="normal" text-decoration="none" x="200" y="60"> </text><text fill="#eeeeee" stroke="none" font-family="Arial" font-size="24px" font-style="normal" font-weight="normal" text-decoration="none" x="200" y="90"> </text><text fill="#eeeeee" stroke="none" font-family="Arial" font-size="24px" font-style="normal" font-weight="normal" text-decoration="none" x="200" y="120"> </text><text fill="#eeeeee" stroke="none" font-family="Arial" font-size="24px" font-style="normal" font-weight="normal" text-decoration="none" x="200" y="150"> </text><text fill="#eeeeee" stroke="none" font-family="Arial" font-size="24px" font-style="normal" font-weight="normal" text-decoration="none" x="200" y="180"> </text><text fill="#eeeeee" stroke="none" font-family="Arial" font-size="24px" font-style="normal" font-weight="normal" text-decoration="none" x="200" y="210"> </text><text fill="#eeeeee" stroke="none" font-family="Arial" font-size="24px" font-style="normal" font-weight="normal" text-decoration="none" x="200" y="240"> </text><text fill="#eeeeee" stroke="none" font-family="Arial" font-size="24px" font-style="normal" font-weight="normal" text-decoration="none" x="200" y="270"> </text><text fill="#eeeeee" stroke="none" font-family="Arial" font-size="24px" font-style="normal" font-weight="normal" text-decoration="none" x="200" y="300"> </text><text fill="#eeeeee" stroke="none" font-family="Arial" font-size="24px" font-style="normal" font-weight="normal" text-decoration="none" x="200" y="330"> </text><text fill="#eeeeee" stroke="none" font-family="Arial" font-size="24px" font-style="normal" font-weight="normal" text-decoration="none" x="400" y="0"> </text><text fill="#eeeeee" stroke="none" font-family="Arial" font-size="24px" font-style="normal" font-weight="normal" text-decoration="none" x="400" y="30"> </text><text fill="#eeeeee" stroke="none" font-family="Arial" font-size="24px" font-style="normal" font-weight="normal" text-decoration="none" x="400" y="60"> </text><text fill="#eeeeee" stroke="none" font-family="Arial" font-size="24px" font-style="normal" font-weight="normal" text-decoration="none" x="400" y="90"> </text><text fill="#eeeeee" stroke="none" font-family="Arial" font-size="24px" font-style="normal" font-weight="normal" text-decoration="none" x="400" y="120"> </text><text fill="#eeeeee" stroke="none" font-family="Arial" font-size="24px" font-style="normal" font-weight="normal" text-decoration="none" x="400" y="150"> </text><text fill="#eeeeee" stroke="none" font-family="Arial" font-size="24px" font-style="normal" font-weight="normal" text-decoration="none" x="400" y="180"> </text><text fill="#eeeeee" stroke="none" font-family="Arial" font-size="24px" font-style="normal" font-weight="normal" text-decoration="none" x="400" y="210"> </text><text fill="#eeeeee" stroke="none" font-family="Arial" font-size="24px" font-style="normal" font-weight="normal" text-decoration="none" x="400" y="240"> </text><text fill="#eeeeee" stroke="none" font-family="Arial" font-size="24px" font-style="normal" font-weight="normal" text-decoration="none" x="400" y="270"> </text><text fill="#eeeeee" stroke="none" font-family="Arial" font-size="24px" font-style="normal" font-weight="normal" text-decoration="none" x="400" y="300"> </text><text fill="#eeeeee" stroke="none" font-family="Arial" font-size="24px" font-style="normal" font-weight="normal" text-decoration="none" x="400" y="330"> </text><g transform="translate(-6,-126) scale(1,1)"><rect fill="#C0C0C0" stroke="none" x="71" y="175" width="27.5966796875" height="15" opacity="0.2"/></g><g transform="translate(-6,-126) scale(1,1)"><rect fill="#C0C0C0" stroke="none" x="71" y="189" width="68.99169921875" height="25" opacity="0.2"/></g><g transform="translate(-6,-126) scale(1,1)"><rect fill="#ffffff" stroke="none" x="64" y="183" width="68.99169921875" height="24"/></g><g transform="translate(-6,-126) scale(1,1)"><path fill="none" stroke="#000000" d="M 64 183 L 132.99169921875 183 L 132.99169921875 207 L 64 207 L 64 183 Z Z" stroke-miterlimit="10"/></g><g transform="translate(-6,-126) scale(1,1)"><rect fill="#ffffff" stroke="none" x="64" y="168" width="27.5966796875" height="15"/></g><g transform="translate(-6,-126) scale(1,1)"><path fill="none" stroke="#000000" d="M 64 168 L 91.5966796875 168 L 91.5966796875 183 L 64 183 L 64 168 Z Z" stroke-miterlimit="10"/></g><g transform="translate(-6,-126) scale(1,1)"><rect fill="#ffffff" stroke="none" x="64" y="182" width="68.99169921875" height="25"/></g><g transform="translate(-6,-126) scale(1,1)"><path fill="none" stroke="#000000" d="M 64 182 L 132.99169921875 182 L 132.99169921875 207 L 64 207 L 64 182 Z Z" stroke-miterlimit="10"/></g><g transform="translate(-6,-126) scale(1,1)"><g><path fill="none" stroke="none"/><text fill="#000000" stroke="none" font-family="Arial" font-size="13px" font-style="normal" font-weight="bold" text-decoration="none" x="85.12451171875" y="202.5">Stub</text></g></g><g transform="translate(-6,-126) scale(1,1)"><rect fill="#C0C0C0" stroke="none" x="279" y="143" width="65.44648437500001" height="15" opacity="0.2"/></g><g transform="translate(-6,-126) scale(1,1)"><rect fill="#C0C0C0" stroke="none" x="279" y="157" width="163.6162109375" height="25" opacity="0.2"/></g><g transform="translate(-6,-126) scale(1,1)"><rect fill="#ffffff" stroke="none" x="272" y="151" width="163.6162109375" height="24"/></g><g transform="translate(-6,-126) scale(1,1)"><path fill="none" stroke="#000000" d="M 272 151 L 435.6162109375 151 L 435.6162109375 175 L 272 175 L 272 151 Z Z" stroke-miterlimit="10"/></g><g transform="translate(-6,-126) scale(1,1)"><rect fill="#ffffff" stroke="none" x="272" y="136" width="65.44648437500001" height="15"/></g><g transform="translate(-6,-126) scale(1,1)"><path fill="none" stroke="#000000" d="M 272 136 L 337.446484375 136 L 337.446484375 151 L 272 151 L 272 136 Z Z" stroke-miterlimit="10"/></g><g transform="translate(-6,-126) scale(1,1)"><rect fill="#ffffff" stroke="none" x="272" y="150" width="163.6162109375" height="25"/></g><g transform="translate(-6,-126) scale(1,1)"><path fill="none" stroke="#000000" d="M 272 150 L 435.6162109375 150 L 435.6162109375 175 L 272 175 L 272 150 Z Z" stroke-miterlimit="10"/></g><g transform="translate(-6,-126) scale(1,1)"><g><path fill="none" stroke="none"/><text fill="#000000" stroke="none" font-family="Arial" font-size="13px" font-style="normal" font-weight="bold" text-decoration="none" x="281.552734375" y="170.5">DataContractPersistance</text></g></g><g transform="translate(-6,-126) scale(1,1)"><rect fill="#C0C0C0" stroke="none" x="311" y="271" width="45.99472656249998" height="15" opacity="0.2"/></g><g transform="translate(-6,-126) scale(1,1)"><rect fill="#C0C0C0" stroke="none" x="311" y="285" width="114.98681640625" height="25" opacity="0.2"/></g><g transform="translate(-6,-126) scale(1,1)"><rect fill="#ffffff" stroke="none" x="304" y="279" width="114.98681640625" height="24"/></g><g transform="translate(-6,-126) scale(1,1)"><path fill="none" stroke="#000000" d="M 304 279 L 418.98681640625 279 L 418.98681640625 303 L 304 303 L 304 279 Z Z" stroke-miterlimit="10"/></g><g transform="translate(-6,-126) scale(1,1)"><rect fill="#ffffff" stroke="none" x="304" y="264" width="45.99472656249998" height="15"/></g><g transform="translate(-6,-126) scale(1,1)"><path fill="none" stroke="#000000" d="M 304 264 L 349.9947265625 264 L 349.9947265625 279 L 304 279 L 304 264 Z Z" stroke-miterlimit="10"/></g><g transform="translate(-6,-126) scale(1,1)"><rect fill="#ffffff" stroke="none" x="304" y="278" width="114.98681640625" height="25"/></g><g transform="translate(-6,-126) scale(1,1)"><path fill="none" stroke="#000000" d="M 304 278 L 418.98681640625 278 L 418.98681640625 303 L 304 303 L 304 278 Z Z" stroke-miterlimit="10"/></g><g transform="translate(-6,-126) scale(1,1)"><g><path fill="none" stroke="none"/><text fill="#000000" stroke="none" font-family="Arial" font-size="13px" font-style="normal" font-weight="bold" text-decoration="none" x="311.99755859375" y="298.5">Test_Persistance</text></g></g><g transform="translate(-6,-126) scale(1,1)"><rect fill="#C0C0C0" stroke="none" x="95" y="319" width="46.95703125" height="15" opacity="0.2"/></g><g transform="translate(-6,-126) scale(1,1)"><rect fill="#C0C0C0" stroke="none" x="95" y="333" width="117.392578125" height="25" opacity="0.2"/></g><g transform="translate(-6,-126) scale(1,1)"><rect fill="#ffffff" stroke="none" x="88" y="327" width="117.392578125" height="24"/></g><g transform="translate(-6,-126) scale(1,1)"><path fill="none" stroke="#000000" d="M 88 327 L 205.392578125 327 L 205.392578125 351 L 88 351 L 88 327 Z Z" stroke-miterlimit="10"/></g><g transform="translate(-6,-126) scale(1,1)"><rect fill="#ffffff" stroke="none" x="88" y="312" width="46.95703125" height="15"/></g><g transform="translate(-6,-126) scale(1,1)"><path fill="none" stroke="#000000" d="M 88 312 L 134.95703125 312 L 134.95703125 327 L 88 327 L 88 312 Z Z" stroke-miterlimit="10"/></g><g transform="translate(-6,-126) scale(1,1)"><rect fill="#ffffff" stroke="none" x="88" y="326" width="117.392578125" height="25"/></g><g transform="translate(-6,-126) scale(1,1)"><path fill="none" stroke="#000000" d="M 88 326 L 205.392578125 326 L 205.392578125 351 L 88 351 L 88 326 Z Z" stroke-miterlimit="10"/></g><g transform="translate(-6,-126) scale(1,1)"><g><path fill="none" stroke="none"/><text fill="#000000" stroke="none" font-family="Arial" font-size="13px" font-style="normal" font-weight="bold" text-decoration="none" x="95.40087890625" y="346.5">JSONPersistance</text></g></g><g transform="translate(-6,-126) scale(1,1)"><rect fill="#C0C0C0" stroke="none" x="367" y="439" width="27.5966796875" height="15" opacity="0.2"/></g><g transform="translate(-6,-126) scale(1,1)"><rect fill="#C0C0C0" stroke="none" x="367" y="453" width="68.99169921875" height="25" opacity="0.2"/></g><g transform="translate(-6,-126) scale(1,1)"><rect fill="#ffffff" stroke="none" x="360" y="447" width="68.99169921875" height="24"/></g><g transform="translate(-6,-126) scale(1,1)"><path fill="none" stroke="#000000" d="M 360 447 L 428.99169921875 447 L 428.99169921875 471 L 360 471 L 360 447 Z Z" stroke-miterlimit="10"/></g><g transform="translate(-6,-126) scale(1,1)"><rect fill="#ffffff" stroke="none" x="360" y="432" width="27.5966796875" height="15"/></g><g transform="translate(-6,-126) scale(1,1)"><path fill="none" stroke="#000000" d="M 360 432 L 387.5966796875 432 L 387.5966796875 447 L 360 447 L 360 432 Z Z" stroke-miterlimit="10"/></g><g transform="translate(-6,-126) scale(1,1)"><rect fill="#ffffff" stroke="none" x="360" y="446" width="68.99169921875" height="25"/></g><g transform="translate(-6,-126) scale(1,1)"><path fill="none" stroke="#000000" d="M 360 446 L 428.99169921875 446 L 428.99169921875 471 L 360 471 L 360 446 Z Z" stroke-miterlimit="10"/></g><g transform="translate(-6,-126) scale(1,1)"><g><path fill="none" stroke="none"/><text fill="#000000" stroke="none" font-family="Arial" font-size="13px" font-style="normal" font-weight="bold" text-decoration="none" x="372.456787109375" y="466.5">Audium</text></g></g><g transform="translate(-6,-126) scale(1,1)"><rect fill="#C0C0C0" stroke="none" x="23" y="439" width="32.484375" height="15" opacity="0.2"/></g><g transform="translate(-6,-126) scale(1,1)"><rect fill="#C0C0C0" stroke="none" x="23" y="453" width="81.2109375" height="25" opacity="0.2"/></g><g transform="translate(-6,-126) scale(1,1)"><rect fill="#ffffff" stroke="none" x="16" y="447" width="81.2109375" height="24"/></g><g transform="translate(-6,-126) scale(1,1)"><path fill="none" stroke="#000000" d="M 16 447 L 97.2109375 447 L 97.2109375 471 L 16 471 L 16 447 Z Z" stroke-miterlimit="10"/></g><g transform="translate(-6,-126) scale(1,1)"><rect fill="#ffffff" stroke="none" x="16" y="432" width="32.484375" height="15"/></g><g transform="translate(-6,-126) scale(1,1)"><path fill="none" stroke="#000000" d="M 16 432 L 48.484375 432 L 48.484375 447 L 16 447 L 16 432 Z Z" stroke-miterlimit="10"/></g><g transform="translate(-6,-126) scale(1,1)"><rect fill="#ffffff" stroke="none" x="16" y="446" width="81.2109375" height="25"/></g><g transform="translate(-6,-126) scale(1,1)"><path fill="none" stroke="#000000" d="M 16 446 L 97.2109375 446 L 97.2109375 471 L 16 471 L 16 446 Z Z" stroke-miterlimit="10"/></g><g transform="translate(-6,-126) scale(1,1)"><g><path fill="none" stroke="none"/><text fill="#000000" stroke="none" font-family="Arial" font-size="13px" font-style="normal" font-weight="bold" text-decoration="none" x="23.004150390625" y="466.5">NewtonSoft</text></g></g><g transform="translate(-6,-126) scale(1,1)"><path fill="none" stroke="#000000" d="M 130 352 L 71 431" stroke-miterlimit="10" stroke-dasharray="3"/></g><g transform="translate(-6,-126) scale(1,1)"><path fill="none" stroke="#000000" d="M 73.70837083681386 420.33863388630255 L 71 431 L 80.4538316603869 425.376383108971" stroke-miterlimit="10"/></g><g transform="translate(-6,-126) scale(1,1)"><path fill="none" stroke="#000000" d="M 303 296 L 206 318" stroke-miterlimit="10" stroke-dasharray="3"/></g><g transform="translate(-6,-126) scale(1,1)"><path fill="none" stroke="#000000" d="M 214.979872227363 311.6468988060763 L 206 318 L 216.8420494819449 319.8574076103693" stroke-miterlimit="10"/></g><g transform="translate(-6,-126) scale(1,1)"><path fill="none" stroke="#000000" d="M 306 263 L 134 200" stroke-miterlimit="10" stroke-dasharray="3"/></g><g transform="translate(-6,-126) scale(1,1)"><path fill="none" stroke="#000000" d="M 144.99048512563692 199.54257601379703 L 134 200 L 142.09489416338923 207.44799895834626" stroke-miterlimit="10"/></g><g transform="translate(-6,-126) scale(1,1)"><path fill="none" stroke="#000000" d="M 360 263 L 354 176" stroke-miterlimit="10" stroke-dasharray="3"/></g><g transform="translate(-6,-126) scale(1,1)"><path fill="none" stroke="#000000" d="M 358.89875586804817 185.8489690295616 L 354 176 L 350.49967070517494 186.42821628217354" stroke-miterlimit="10"/></g><g transform="translate(-6,-126) scale(1,1)"><path fill="none" stroke="#000000" d="M 359 434 L 189 352" stroke-miterlimit="10" stroke-dasharray="3"/></g><g transform="translate(-6,-126) scale(1,1)"><path fill="none" stroke="#000000" d="M 199.9823032152422 352.6237115426867 L 189 352 L 196.3246304152065 360.2066917378827" stroke-miterlimit="10"/></g></g></svg>